<svg xmlns="http://www.w3.org/2000/svg" width="100" height="100" viewBox="0 0 100 100">
  <g id="Group_51000" data-name="Group 51000" transform="translate(-157 -4122)">
    <circle id="Ellipse_8" data-name="Ellipse 8" cx="50" cy="50" r="50" transform="translate(157 4122)" fill="#e9eaff"/>
    <path id="Icon_map-doctor" data-name="Icon map-doctor" d="M26.386,8.066H23.372v-3.2A4.106,4.106,0,0,0,19.273.72H11.553a4.105,4.105,0,0,0-4.1,4.147v3.2H4.439A3.651,3.651,0,0,0,.72,11.7V25.786a3.713,3.713,0,0,0,3.719,3.708H26.386a3.714,3.714,0,0,0,3.72-3.708V11.7A3.652,3.652,0,0,0,26.386,8.066ZM9.9,4.867a1.768,1.768,0,0,1,1.65-1.7h7.721a1.769,1.769,0,0,1,1.649,1.7v3.2H9.9ZM22.147,21.535H17.862V25.82h-4.9V21.535H8.679v-4.9h4.285V12.352h4.9v4.285h4.285v4.9Z" transform="translate(191.587 4156.893)" fill="#ff5016"/>
  </g>
</svg>
