<svg xmlns="http://www.w3.org/2000/svg" width="100" height="100" viewBox="0 0 100 100">
  <g id="Group_50999" data-name="Group 50999" transform="translate(-157 -4122)">
    <circle id="Ellipse_8" data-name="Ellipse 8" cx="50" cy="50" r="50" transform="translate(157 4122)" fill="#e9eaff"/>
    <path id="Icon_awesome-question-circle" data-name="Icon awesome-question-circle" d="M26.616,13.589A13.027,13.027,0,1,1,13.589.563,13.026,13.026,0,0,1,26.616,13.589ZM13.939,4.87A6.8,6.8,0,0,0,7.817,8.219a.631.631,0,0,0,.143.854l1.823,1.382a.63.63,0,0,0,.875-.111c.938-1.19,1.582-1.88,3.01-1.88,1.073,0,2.4.691,2.4,1.731,0,.787-.649,1.191-1.709,1.785-1.236.693-2.871,1.555-2.871,3.711v.21a.63.63,0,0,0,.63.63H15.06a.63.63,0,0,0,.63-.63v-.07c0-1.5,4.369-1.557,4.369-5.6C20.06,7.181,16.9,4.87,13.939,4.87ZM13.589,17.9a2.416,2.416,0,1,0,2.416,2.416A2.419,2.419,0,0,0,13.589,17.9Z" transform="translate(193.411 4158.411)" fill="#ff5016"/>
  </g>
</svg>
