<svg xmlns="http://www.w3.org/2000/svg" width="100" height="100" viewBox="0 0 100 100">
  <g id="Group_51001" data-name="Group 51001" transform="translate(-157 -4122)">
    <circle id="Ellipse_8" data-name="Ellipse 8" cx="50" cy="50" r="50" transform="translate(157 4122)" fill="#e9eaff"/>
    <g id="Icon_ionic-ios-card" data-name="Icon ionic-ios-card" transform="translate(189 4154)">
      <path id="Path_198" data-name="Path 198" d="M33.75,9A2.257,2.257,0,0,0,31.5,6.75H4.5A2.257,2.257,0,0,0,2.25,9v3.375h31.5Z" fill="#ff5016"/>
      <path id="Path_199" data-name="Path 199" d="M2.25,27A2.257,2.257,0,0,0,4.5,29.25h27A2.257,2.257,0,0,0,33.75,27V15.75H2.25Zm9.984-3.375H23.766a.987.987,0,0,1,.984.984h0a.987.987,0,0,1-.984.984H12.234a.987.987,0,0,1-.984-.984h0A.987.987,0,0,1,12.234,23.625Zm-5.062,0h.844A.987.987,0,0,1,9,24.609H9a.987.987,0,0,1-.984.984H7.172a.987.987,0,0,1-.984-.984h0A.987.987,0,0,1,7.172,23.625Z" fill="#ff5016"/>
    </g>
  </g>
</svg>
