<svg xmlns="http://www.w3.org/2000/svg" xmlns:xlink="http://www.w3.org/1999/xlink" width="24" height="24" viewBox="0 0 24 24">
  <defs>
    <clipPath id="clip-path">
      <path id="Path_201" data-name="Path 201" d="M9.983-163H2.3A2.311,2.311,0,0,0,0-160.7v7.679a2.311,2.311,0,0,0,2.3,2.3H9.983a2.311,2.311,0,0,0,2.3-2.3V-160.7A2.311,2.311,0,0,0,9.983-163Zm1.536,9.983a1.536,1.536,0,0,1-1.536,1.536H2.3a1.536,1.536,0,0,1-1.536-1.536V-160.7A1.536,1.536,0,0,1,2.3-162.232H9.983a1.536,1.536,0,0,1,1.536,1.536Z" transform="translate(0 163)" fill="none"/>
    </clipPath>
    <clipPath id="clip-path-2">
      <path id="Path_202" data-name="Path 202" d="M49.211-115A1.211,1.211,0,0,0,48-113.789a1.211,1.211,0,0,0,1.211,1.211,1.211,1.211,0,0,0,1.211-1.211A1.211,1.211,0,0,0,49.211-115Zm0,1.817a.606.606,0,0,1-.606-.606.606.606,0,0,1,.606-.606.606.606,0,0,1,.606.606A.606.606,0,0,1,49.211-113.183Z" transform="translate(-48 115)" fill="none"/>
    </clipPath>
    <clipPath id="clip-path-3">
      <path id="Path_203" data-name="Path 203" d="M32.667-129H29.333A1.333,1.333,0,0,1,28-130.333v-3.333A1.333,1.333,0,0,1,29.333-135h3.333A1.333,1.333,0,0,1,34-133.667v3.333A1.333,1.333,0,0,1,32.667-129Zm-3.333-5.333a.667.667,0,0,0-.667.667v3.333a.667.667,0,0,0,.667.667h3.333a.667.667,0,0,0,.667-.667v-3.333a.667.667,0,0,0-.667-.667Z" transform="translate(-28 135)" fill="none"/>
    </clipPath>
  </defs>
  <g id="Group_51092" data-name="Group 51092" transform="translate(-221 -3844)">
    <circle id="Ellipse_23" data-name="Ellipse 23" cx="12" cy="12" r="12" transform="translate(221 3844)" fill="#e9eaff"/>
    <g id="Group_51017" data-name="Group 51017" transform="translate(24.856 -123.144)">
      <g id="Group_51010" data-name="Group 51010" transform="translate(202 3973)" clip-path="url(#clip-path)">
        <circle id="Ellipse_15" data-name="Ellipse 15" cx="14.5" cy="14.5" r="14.5" transform="translate(-11.856 -2.856)" fill="#101131"/>
      </g>
      <g id="Group_51012" data-name="Group 51012" transform="translate(206.932 3977.932)" clip-path="url(#clip-path-2)">
        <circle id="Ellipse_18" data-name="Ellipse 18" cx="11.5" cy="11.5" r="11.5" transform="translate(-12.789 -5.789)" fill="#101131"/>
      </g>
      <g id="Group_51013" data-name="Group 51013" transform="translate(205.144 3976.144)" clip-path="url(#clip-path-3)">
        <ellipse id="Ellipse_19" data-name="Ellipse 19" cx="13" cy="12.5" rx="13" ry="12.5" transform="translate(-13 -5)" fill="#101131"/>
      </g>
      <circle id="Ellipse_22" data-name="Ellipse 22" cx="0.75" cy="0.75" r="0.75" transform="translate(211.144 3974.644)" fill="#101131"/>
    </g>
  </g>
</svg>
