<svg xmlns="http://www.w3.org/2000/svg" width="100" height="100" viewBox="0 0 100 100">
  <g id="Group_51002" data-name="Group 51002" transform="translate(-157 -4122)">
    <circle id="Ellipse_8" data-name="Ellipse 8" cx="50" cy="50" r="50" transform="translate(157 4122)" fill="#e9eaff"/>
    <path id="Icon_awesome-check-circle" data-name="Icon awesome-check-circle" d="M30.557,15.56a15,15,0,1,1-15-15A15,15,0,0,1,30.557,15.56ZM13.825,23.5,24.952,12.374a.968.968,0,0,0,0-1.368L23.584,9.637a.968.968,0,0,0-1.368,0l-9.075,9.074L8.9,14.475a.968.968,0,0,0-1.368,0L6.168,15.843a.968.968,0,0,0,0,1.368L12.457,23.5a.968.968,0,0,0,1.368,0Z" transform="translate(191.44 4156.44)" fill="#ff5016"/>
  </g>
</svg>
