<svg xmlns="http://www.w3.org/2000/svg" width="24" height="24" viewBox="0 0 24 24">
  <path id="linkedin" d="M19.025,7.025a12,12,0,1,0,12,12A12,12,0,0,0,19.025,7.025Zm-3.2,17.8H13.189V16.314h2.635ZM14.493,15.2a1.571,1.571,0,1,1,1.558-1.571A1.564,1.564,0,0,1,14.493,15.2Zm11.2,9.627H23.075V20.358c0-1.225-.465-1.91-1.435-1.91-1.055,0-1.606.712-1.606,1.91v4.468H17.508V16.314h2.527v1.146A2.969,2.969,0,0,1,22.6,16.055c1.8,0,3.1,1.1,3.1,3.382v5.39Z" transform="translate(-7.025 -7.025)" fill="#e9eaff"/>
</svg>
