<svg xmlns="http://www.w3.org/2000/svg" width="24" height="24" viewBox="0 0 24 24">
  <g id="movie" transform="translate(0 -0.114)">
    <circle id="Ellipse_24" data-name="Ellipse 24" cx="12" cy="12" r="12" transform="translate(0 0.114)" fill="#e9eaff"/>
    <path id="Path_205" data-name="Path 205" d="M42.11,41.81c-.092-1.272-.324-2.585-1.95-2.681a80.349,80.349,0,0,0-9.146,0c-1.626.094-1.858,1.409-1.95,2.681a25.432,25.432,0,0,0,0,3.8c.092,1.272.324,2.585,1.95,2.681a80.351,80.351,0,0,0,9.146,0c1.626-.094,1.858-1.409,1.95-2.681a25.433,25.433,0,0,0,0-3.8ZM34.269,45.4V41.636l3.579,1.884Z" transform="translate(-23.531 -31.652)" fill="#101131" fill-rule="evenodd"/>
  </g>
</svg>
