<svg id="account_circle_black_24dp" xmlns="http://www.w3.org/2000/svg" width="36" height="36" viewBox="0 0 36 36">
  <g id="Group_51099" data-name="Group 51099">
    <rect id="Rectangle_17282" data-name="Rectangle 17282" width="36" height="36" fill="none"/>
  </g>
  <g id="Group_51100" data-name="Group 51100" transform="translate(3.659 3.659)">
    <path id="Path_2001" data-name="Path 2001" d="M16.3,2a14.3,14.3,0,1,0,14.3,14.3A14.3,14.3,0,0,0,16.3,2Zm0,5.719a5,5,0,1,1-5,5A5.009,5.009,0,0,1,16.3,7.719Zm0,20.016a11.449,11.449,0,0,1-8.778-4.118,14.228,14.228,0,0,1,17.557,0A11.449,11.449,0,0,1,16.3,27.735Z" transform="translate(-2 -2)"/>
  </g>
</svg>
