<svg xmlns="http://www.w3.org/2000/svg" width="19.611" height="13.577" viewBox="0 0 19.611 13.577">
  <g id="Icon_ionic-ios-mail" data-name="Icon ionic-ios-mail" transform="translate(-3.375 -7.875)">
    <path id="Path_2002" data-name="Path 2002" d="M22.826,10.343,17.753,15.51a.091.091,0,0,0,0,.132l3.55,3.781a.612.612,0,0,1,0,.867.615.615,0,0,1-.867,0L16.9,16.523a.1.1,0,0,0-.137,0L15.9,17.4a3.8,3.8,0,0,1-2.706,1.141,3.872,3.872,0,0,1-2.763-1.174l-.83-.844a.1.1,0,0,0-.137,0L5.93,20.29a.615.615,0,0,1-.867,0,.612.612,0,0,1,0-.867l3.55-3.781a.1.1,0,0,0,0-.132L3.535,10.343a.093.093,0,0,0-.16.066V20.747a1.513,1.513,0,0,0,1.509,1.509H21.478a1.513,1.513,0,0,0,1.509-1.509V10.409A.094.094,0,0,0,22.826,10.343Z" transform="translate(0 -0.804)" fill="#ff5016"/>
    <path id="Path_2003" data-name="Path 2003" d="M13.461,16.507a2.563,2.563,0,0,0,1.843-.773L22.7,8.2a1.482,1.482,0,0,0-.933-.33H5.159a1.472,1.472,0,0,0-.933.33l7.4,7.529A2.563,2.563,0,0,0,13.461,16.507Z" transform="translate(-0.28 0)" fill="#ff5016"/>
  </g>
</svg>
